<?xml version="1.0" encoding="utf-8"?>
<!-- Generator: Adobe Illustrator 19.2.1, SVG Export Plug-In . SVG Version: 6.00 Build 0)  -->
<svg version="1.1" xmlns="http://www.w3.org/2000/svg" xmlns:xlink="http://www.w3.org/1999/xlink" x="0px" y="0px"
	 viewBox="0 0 50 50" style="enable-background:new 0 0 50 50;" xml:space="preserve">
<style type="text/css">
	.st0{fill:#63432D;}
	.st1{fill:none;}
</style>
<g id="Web">
</g>
<g id="E-Mail">
</g>
<g id="Cell">
	<g>
		<path class="st1" d="M30.6,41.9c-0.6,0.2-1.1,1-0.8,1.7c0.3,0.6,1.1,0.9,1.7,0.6c0.7-0.3,1-1.1,0.7-1.7
			C31.9,41.9,31.1,41.7,30.6,41.9z"/>
		<path class="st1" d="M16.3,15c0.2,0.1,0.4,0,0.5,0c0.9-0.3,2.7-1.1,3.7-1.5c0.6-0.2,1.7-0.6,1.8-1c0-0.2,0-0.4,0-0.4
			c0-0.1-0.1-0.2-0.2-0.3c-0.1,0-0.2-0.1-0.6,0c-0.4,0.1-0.7,0.3-0.7,0.3c-0.3,0.2-1.5,0.7-4.1,1.7c-0.1,0-0.4,0.2-0.5,0.4
			c0,0.1,0,0.2,0,0.4C16.1,14.7,16.1,14.9,16.3,15z"/>
		<path class="st1" d="M29.1,14.6c-0.2-0.5-0.7-0.7-1.2-0.5c-4.9,2-9.8,3.9-14.6,5.9c-0.5,0.2-0.7,0.7-0.5,1.2
			c2.7,6.8,5.5,13.6,8.2,20.5c0.2,0.5,0.7,0.7,1.2,0.5c4.9-2,9.8-3.9,14.6-5.9c0.5-0.2,0.7-0.7,0.5-1.2
			C34.5,28.2,31.8,21.4,29.1,14.6z"/>
		<path class="st0" d="M30.9,5.2c-0.5,0.5-1.1,1.1-0.9,1.6c0.1,0.3,0.5,0.5,0.7,0.5c0.2,0,0.4,0,0.6-0.1c0.2-0.1,0.3-0.2,0.4-0.2
			c1.1-0.8,2-1.7,2.1-1.8c0.3-0.3,0.5-0.5,0.8-0.8C35.4,3.8,36,3.3,36,2.7c0-0.3-0.2-0.6-0.2-0.6c0,0-0.2-0.3-0.6-0.4
			c-0.6-0.2-1.2,0.5-2.3,1.6C32.4,3.8,31.7,4.5,30.9,5.2z"/>
		<path class="st0" d="M28.6,4.9c0.1,0,0.2,0,0.3-0.1c0.4-0.2,0.7-0.6,1.1-1.1l0.3-0.5c1.2-1.8,1.4-2,1.1-2.4
			c-0.2-0.4-0.8-0.5-1.3-0.5c-0.5,0.1-0.8,0.4-1.9,2.4c-0.5,0.9-0.8,1.4-0.5,1.8C28,4.9,28.5,4.9,28.6,4.9z"/>
		<path class="st0" d="M25.7,4.1c0,0,0.1,0,0.1,0c0.4-0.2,0.5-0.6,0.6-0.8c0.5-1.4,0.7-2.1,0.3-2.6c-0.3-0.3-0.8-0.6-1.3-0.4
			c0,0,0,0,0,0c-0.5,0.2-0.6,0.8-0.8,2c-0.1,0.9-0.2,1.6,0.2,1.9C25.2,4.2,25.5,4.2,25.7,4.1z"/>
		<path class="st0" d="M32.9,8.2C32,8.6,31.4,9,31.5,9.3c0,0.3,0.3,0.6,0.5,0.7c0.1,0.1,0.2,0.2,0.3,0.2c0.3,0.1,0.7-0.1,0.9-0.2
			c0.4-0.2,1-0.4,1.9-0.8c0.9-0.4,1.3-0.7,1.4-1.2c0.1-0.3,0-0.8-0.3-1.1C35.8,6.8,35.4,6.9,32.9,8.2z"/>
		<path class="st0" d="M41.5,38.2c-2.3-6.4-5.2-12.2-6.8-16.9c-1.2-3.6-2.4-6.3-4.8-11.9c-0.3-0.7-0.9-2.2-2.4-2.8
			c-1-0.4-2.3-0.4-3.7,0.2c-4.3,1.7-8.5,3.4-12.8,5.1c-2.9,1.2-3.8,3.3-2.6,6.2c1.9,4.7,3.8,9.4,5.7,14.1c1.9,4.8,3.9,9.7,5.8,14.5
			c1.1,2.7,3.2,3.8,5.9,2.7c4.5-1.7,8.9-3.5,13.3-5.3c1.3-0.5,2.1-1.3,2.5-2.2C42.3,40.4,41.8,38.9,41.5,38.2z M16,14.3
			c0.1-0.3,0.4-0.4,0.5-0.4c2.6-1,3.8-1.6,4.1-1.7c0,0,0.3-0.2,0.7-0.3c0.4-0.1,0.6,0,0.6,0c0.1,0.1,0.2,0.2,0.2,0.3
			c0,0,0.1,0.2,0,0.4c-0.1,0.4-1.2,0.7-1.8,1c-1,0.4-2.7,1.2-3.7,1.5c-0.1,0-0.3,0.1-0.5,0c-0.2-0.1-0.2-0.3-0.2-0.3
			C16,14.5,16,14.4,16,14.3z M31.4,44.2c-0.6,0.3-1.4,0-1.7-0.6c-0.3-0.7,0.2-1.4,0.8-1.7c0.6-0.2,1.3,0,1.6,0.6
			C32.5,43.1,32.1,43.9,31.4,44.2z M36.8,36.2c-4.9,2-9.7,3.9-14.6,5.9c-0.5,0.2-1,0-1.2-0.5c-2.7-6.8-5.5-13.6-8.2-20.5
			c-0.2-0.5,0-1,0.5-1.2c4.9-2,9.8-3.9,14.6-5.9c0.5-0.2,1,0,1.2,0.5c2.7,6.8,5.5,13.6,8.2,20.5C37.5,35.5,37.2,36.1,36.8,36.2z"/>
	</g>
</g>
<g id="Land_Line">
</g>
<g id="Facebook">
</g>
<g id="Twitter">
</g>
<g id="Instagram">
</g>
<g id="Pinterest">
</g>
<g id="Address">
</g>
<g id="LinkedIn">
</g>
</svg>
