<?xml version="1.0" encoding="utf-8"?>
<!-- Generator: Adobe Illustrator 19.2.1, SVG Export Plug-In . SVG Version: 6.00 Build 0)  -->
<svg version="1.1" xmlns="http://www.w3.org/2000/svg" xmlns:xlink="http://www.w3.org/1999/xlink" x="0px" y="0px"
	 viewBox="0 0 50 50" style="enable-background:new 0 0 50 50;" xml:space="preserve">
<style type="text/css">
	.st0{fill:#63432D;}
	.st1{fill:none;}
</style>
<g id="Web">
</g>
<g id="E-Mail">
</g>
<g id="Cell">
</g>
<g id="Land_Line">
</g>
<g id="Facebook">
	<path class="st0" d="M48.6,48.4c0.1,0,0.1-0.1,0.2-0.1c0.2-0.2,0.3-0.5,0.3-0.8c0-0.1,0-0.1,0-0.1c0-0.1,0-0.1,0-0.1
		c0-0.5,0-1.1-0.1-1.7c0-0.3,0-0.6-0.1-0.8v0c-0.1-2-0.2-4-0.3-5.7c-0.2-2.6-0.3-5.3-0.3-8c0-1.2,0-2.5,0-3.9l0-3.9
		c0.1-2.6,0-5.4-0.2-8.6l0-0.2c-0.1-1.3-0.1-2.7-0.2-4.1l0-1c-0.1-1.9-0.1-3.9-0.2-5.9c0-0.1,0-0.1,0-0.3c0,0,0,0,0-0.1
		C47.9,2.9,48,2.7,48,2.4c0-0.4-0.1-1.2-1.5-1.3c-0.5,0-1.1,0-1.7,0c-0.3,0-0.6,0-0.8,0l0,0c-2,0-4,0.1-5.7,0.2
		c-2.6,0.1-5.3,0.2-8,0.2c-1.2,0-2.5-0.1-3.9-0.1l-3.9-0.1c-2.6-0.2-5.4-0.1-8.6,0l-0.2,0c-1.3,0-2.7,0.1-4.1,0.1l-1,0
		c-1.9,0-3.9,0.1-5.9,0.1c-0.1,0-0.1,0-0.2,0C2.3,1.5,2.2,1.5,2,1.5c-0.3,0-0.6,0.1-0.7,0.3c0,0-0.1,0-0.1,0.1
		C0.9,2.1,0.8,2.4,0.8,2.7c0,0,0,0.1,0,0.1c0,0.2,0,0.4,0,0.5l0,0.2c0,4.1,0.2,7.8,0.4,11.2c0.2,2.8,0.2,5.6,0.2,8.4l0,1.7
		c0,1.3,0,2.6,0,3.9c0,3-0.1,6.2,0.2,9.3c0.2,2.2,0.3,4.4,0.3,6.6c0,0.8,0,1.7,0.1,2.5c0,0.1,0,0.3,0.1,0.5c0,0.4,0.2,1.1,1.5,1.2
		c0.5,0,1.1,0,1.7,0c0.3,0,0.6,0,0.8,0l0,0c2,0,4-0.1,5.7-0.1c2.6-0.1,5.3-0.2,8-0.1c1.2,0,2.5,0.1,3.9,0.1l3.9,0.1
		c2.6,0.2,5.4,0.1,8.6,0l0.2,0c1.3,0,2.7-0.1,4.1-0.1l1,0c1.9,0,3.9,0,5.9-0.1c0,0,0,0,0,0c0.1,0.1,0.3,0.1,0.5,0.1
		c0.2,0,0.4,0,0.7-0.2C48.6,48.5,48.6,48.5,48.6,48.4C48.6,48.4,48.6,48.4,48.6,48.4z M36,46.4c-2.3,0.1-4.7,0.1-7,0
		c0-1.7,0-3.4,0.1-5.1l0-1.7c0-1.3,0.1-2.6,0.1-3.9c0.1-2.9,0.2-5.8,0-8.7c0.5,0,0.9,0,1.3,0c1.3,0,3.8,0.2,4.3-0.5
		c0.2-0.4,0.3-0.8,0.3-0.8c0-0.2,0-0.5-0.2-0.8c-0.1-0.1-0.4-0.4-1.3-0.6c-0.9-0.1-1.7,0-1.7,0c-0.3,0.1-1.2,0.1-2.8,0.2
		C29,22.9,29,21.3,29,19.7c0-0.2-0.1-1.2,0-2.5c0.1-1.2,0.1-1.9,0.4-2.7c0.1-0.2,0.6-1.6,1.9-2.6c1.7-1.3,4.7-1.9,7-1
		c0.5,0.2,1.3,0.6,1.9,0.2c0.4-0.3,0.6-0.8,0.5-1.3c-0.1-0.5-0.7-0.8-1.4-1c-3.7-1.2-6.3-0.4-6.3-0.4c-0.7,0.2-3.7,1.2-5.3,4
		c-1,1.7-1,4.1-1,9c0,0.3,0,1.3,0.1,3.2c-1.2,0-2.7,0-4.4,0c-0.3,0-0.9,0-1.3,0.4c-0.1,0.2-0.2,0.4-0.3,0.8c0,0.1,0,0.5,0.2,0.8
		c0.3,0.4,0.8,0.4,1,0.4c1.2,0.1,3,0,4.7,0c0.1,3.1,0.1,4.4,0.1,6.4c0,1.2-0.1,2.5-0.1,3.9l-0.1,3.9c-0.1,1.6-0.1,3.3-0.1,5.2
		l-0.6,0c-1.3,0-2.6-0.1-3.9-0.1c-3-0.1-6.2-0.2-9.3,0c-2.2,0.2-4.4,0.2-6.6,0.2c-0.5,0-1.1,0-1.6,0c0-0.3,0-0.6-0.1-0.9
		c0-0.3,0-0.6-0.1-0.8v0c-0.1-2-0.2-4-0.3-5.7c-0.2-2.6-0.3-5.3-0.3-8c0-1.2,0-2.5,0-3.9l0-3.9c0.1-2.6,0-5.4-0.2-8.6l0-0.2
		c-0.1-1.3-0.1-2.7-0.2-4.1l0-1C3.3,7.5,3.3,5.7,3.2,3.9c4,0,7.5,0,10.9-0.1c2.8-0.1,5.6-0.1,8.4,0l1.7,0c1.3,0,2.6,0.1,3.9,0.1
		c3,0.1,6.2,0.2,9.3,0c2.2-0.2,4.4-0.2,6.6-0.2c0.5,0,1.1,0,1.6,0c0,4.1,0.2,7.7,0.4,11.1c0.2,2.8,0.2,5.6,0.2,8.4l0,1.7
		c0,1.3,0,2.6,0,3.9c0,3-0.1,6.2,0.2,9.3c0.2,2.2,0.3,4.4,0.3,6.6c0,0.5,0,1.1,0,1.6C42.7,46.2,39.2,46.2,36,46.4z"/>
</g>
<g id="Twitter">
</g>
<g id="Instagram">
</g>
<g id="Pinterest">
</g>
<g id="Address">
</g>
<g id="LinkedIn">
</g>
</svg>
