<?xml version="1.0" encoding="utf-8"?>
<!-- Generator: Adobe Illustrator 19.2.1, SVG Export Plug-In . SVG Version: 6.00 Build 0)  -->
<svg version="1.1" xmlns="http://www.w3.org/2000/svg" xmlns:xlink="http://www.w3.org/1999/xlink" x="0px" y="0px"
	 viewBox="0 0 50 50" style="enable-background:new 0 0 50 50;" xml:space="preserve">
<style type="text/css">
	.st0{display:none;}
	.st1{display:inline;}
	.st2{fill:#63432D;}
	.st3{fill:none;}
	.st4{display:inline;fill:#63432D;}
</style>
<g id="LinkedIn" class="st0">
	<g class="st1">
		<path class="st2" d="M48.5,30.9C48.4,30.2,48.3,21,48,2.4c0-0.1,0-0.5-0.2-0.8c-0.1-0.1-0.3-0.4-1.3-0.6C45.8,0.9,45.3,1,45.3,1
			c-4.1,0.4-8.3,0.1-12.4,0.3c-0.7,0-2.4,0.1-3.9,0.1C24.7,1.5,4,1.7,2.5,1.5c-0.1,0-0.7-0.1-1.2,0.2c-0.1,0-0.1,0.1-0.1,0.1
			C0.7,2.3,0.8,3.2,0.8,3.4c0.7,8.4,0.3,16.9,0.6,25.4C1.5,32.3,1.2,34,1.6,38c0.2,2.2,0.3,4.4,0.3,6.6c0,0.2-0.1,1.2,0.1,2.5
			c0.1,0.6,0.1,0.9,0.3,1.2c0.7,1.2,3,1,3.6,1c4.3-0.3,8.6,0.2,12.9-0.3c9.5-1.2,26.6-0.2,27.9-0.1c0.2,0,0.9,0.1,1.4-0.3
			c0.6-0.5,0.6-1.5,0.6-1.8C48.5,41.5,49.2,36.2,48.5,30.9z M10.6,8.2c0.5-0.6,1.2-0.6,1.4-0.6c0.6,0,1.4,0.3,1.7,1.1
			c0.3,0.6,0.2,1.3-0.2,1.8c-0.5,0.7-1.2,0.7-1.4,0.8c-0.1,0-0.9,0-1.4-0.5C10.1,10,10.1,8.9,10.6,8.2z M13.9,40.5
			c-0.1,0.8-0.3,1.3-0.6,1.5c-0.3,0.2-0.7,0.3-0.9,0.3c0,0-0.5,0-0.9-0.3c-0.7-0.5-0.6-3.5-0.6-5c0-0.3,0-0.5,0-0.7
			c0-1.4,0-4.7-0.1-8.3c-0.1-5-0.2-10.7,0-12.4c0-0.2,0.1-0.9,0.5-1.2c0.3-0.2,0.7-0.3,0.9-0.2c0.4,0,0.6,0.1,0.9,0.3
			c0.5,0.4,0.5,1.2,0.5,1.5c0,1.9,0,4,0.1,6.2c0.1,9.3,0.1,15.5,0.3,16.2C13.9,38.3,14.1,39.3,13.9,40.5z M38.7,37.9l0,0.3
			c0,1.1,0,2.1-0.1,3c0,0.8-0.6,1.4-1.4,1.4c-0.4,0-0.8-0.2-1-0.4c-0.1-0.2-0.2-0.3-0.3-0.5c0-0.1-0.1-0.3-0.1-0.5
			c0-0.7,0.9-11.6,0-18.4c-0.3-2-0.6-3.3-1.6-4.3c-1.2-1.2-3.2-1.9-5-1.5c-2.7,0.6-4.6,3.4-4.6,6.6c0,0.1,0,0.3,0,0.5
			c0,0.3,0,0.7,0,1.1c0,0,0,1.9,0.1,3.7c0,0.3,0.3,7.3,0.2,12c0,0.3,0,1-0.5,1.4c-0.3,0.3-0.8,0.3-0.9,0.3c-0.4,0-0.6-0.1-0.9-0.3
			C22,41.8,22,41,22,40.7c0-2.2,0-4.4,0-6.5c0-1.9,0-3.8,0-5.7c0-0.5,0-1,0-1.4c0-1.7,0-2.9-0.2-4.6c-0.2-1.9-0.3-3.2-0.3-5.8
			c0,0-0.1-2,0.7-2.5c0.3-0.2,0.7-0.2,0.7-0.2c0.3,0,0.5,0.1,0.7,0.2c0.1,0,0.3,0.2,0.5,0.5c0.2,0.4,0.1,0.7,0.2,1.4
			c0,0.2,0.1,1.5,0.5,1.5c0.2,0,0.4-0.4,0.5-0.5c0.7-1.2,3.3-2.2,5.4-2.3c0.5,0,3.4-0.1,5.6,1.9c2.6,2.3,2.6,6.3,2.7,14.1
			c0,0.7,0,1.3,0,1.7C38.8,33,38.7,34.6,38.7,37.9z"/>
	</g>
</g>
<g id="Address" class="st0">
	<g class="st1">
		<path class="st3" d="M23,22.4c0.6,0.2,1.2,0.2,1.4,0.2c0.4,0,1.7,0,2.8-1c1.3-1.1,1.4-2.7,1.4-3.1c0-0.4,0-1.6-1-2.7
			c-1.2-1.4-2.8-1.4-3.2-1.4c-0.4,0-1.5,0-2.5,0.7c-1.7,1.2-1.7,3.3-1.7,3.5C20.4,20.3,21.6,21.9,23,22.4z"/>
		<path class="st2" d="M15.7,23.6c0,0,2.1,5.6,8.1,14c0.1,0.1,0.3,0.4,0.6,0.4c0.1,0,0.3,0,0.6-0.3c2-2.3,6.5-11.5,6.5-11.5
			c1-2,0.9-1.6,1.3-2.5c0.5-1.3,2.7-6.9-0.3-11.2c-2.2-3.1-5.8-3.8-6.4-3.9C22.1,8,17.7,10,15.8,13.5c-1.5,2.8-1.1,5.8-1,6.8
			C14.9,21.2,15.1,21.9,15.7,23.6z M22,15c1-0.7,2.1-0.7,2.5-0.7c0.4,0,2,0.1,3.2,1.4c0.9,1.1,1,2.4,1,2.7c0,0.4-0.1,2-1.4,3.1
			c-1.1,1-2.4,1-2.8,1c-0.3,0-0.8,0-1.4-0.2c-1.5-0.5-2.7-2.1-2.7-3.9C20.3,18.3,20.3,16.2,22,15z"/>
		<path class="st2" d="M49,47.3c-0.8-0.7-2.2-2.9-5.2-7.2c-1.4-2-3.2-5.2-3.8-6.6c-0.3-0.8-0.9-1.5-1.3-2.4c0-0.1-0.1-0.3-0.4-0.5
			c-0.2-0.2-0.5-0.2-1-0.1c-0.3,0-0.7,0-1,0c-1,0.1-1.2,0-1.4,0.1c-0.6,0-2.9,0-3.3,0.1c-0.1,0-0.4,0-0.6,0.2c0,0.1,0,0.2,0,0.3
			c0.1,0.2,0.4,0.2,0.5,0.1c1.6,0,3.2,0,4.7-0.1c0.1,0,0.4,0,0.7,0.1c0.1,0,0.2,0.1,0.3,0.3c1.2,1.4,1.5,2.7,1.5,2.7
			c0.1,0.3,0.9,1.9,2.6,5c2.6,4.8,4.8,7.3,4.2,7.9c-0.1,0.1-0.3,0.1-0.6,0.1c-2.8,0-8.2,0-9,0c-0.3,0-0.9,0-1.9,0.1
			c-0.9,0-1.6,0-2.5,0c-3.4,0-5-0.1-8.2-0.2c-5.6-0.1-8.6-0.2-11.8-0.1c-1.6,0.1-2.3,0.1-2.5,0.1c-1.4,0.1-2.8,0.1-4.1,0.2
			c-0.6,0-0.9,0.1-1-0.1c-0.4-0.4,0.3-1.2,1.1-3.4c0.3-1,0.5-1.6,1.1-3.1c0.1-0.4,0.2-0.6,0.3-0.7c0.3-0.8,2.8-7.2,3-8
			c0,0,0-0.2,0.2-0.4c0,0,0.1-0.2,0.3-0.3c0.3-0.1,0.5-0.1,0.6-0.1c2.3,0.1,4.8-0.1,7.1,0c0.1,0,0.3,0,0.4-0.1
			c0.1-0.1,0.1-0.2,0.1-0.3c-0.1-0.1-0.4-0.1-0.4-0.1c-0.6,0-7.3-0.1-8-0.2c-0.2,0-0.7-0.1-1,0.2c-0.2,0.1-0.2,0.3-0.2,0.3
			c-1.2,2.8-2.4,5.2-3.5,8c-1,2.4-1.4,3.6-1.9,4.3c-0.8,1.4-1.4,3-2.2,4.4c-0.1,0.1-0.3,0.4-0.3,0.8c0,0.1,0,0.5,0.2,0.8
			c0.4,0.5,1.2,0.4,1.4,0.3c2.1-0.2,20.1-0.4,24.8-0.3c7,0.2,13.9-0.4,20.9,0.1c0.2,0,0.9,0.1,1.4-0.3c0.1,0,0.5-0.4,0.5-0.9
			C49.6,47.8,49.1,47.4,49,47.3z"/>
	</g>
</g>
<g id="Pinterest" class="st0">
	<g class="st1">
		<path class="st2" d="M34.3,11.2c-2.4-1.7-4.7-2-6-2.2c-2.8-0.4-5.2,0.2-6.5,0.6c-1.4,0.5-4.2,1.4-6.4,4.1
			c-1.2,1.5-2.1,3.3-2.5,5.5c-0.6,3.1-0.2,6.1,2.2,8.5c0.5,0.5,1.1,0.8,1.7,1.1c0.8,0.4,1.4,0,1.6-0.8c0.2-0.5,0.4-1.1,0.4-1.7
			c0-0.4,0-0.8-0.2-1.1c-1.8-2.2-1.5-4.6-0.5-7.1c1.4-3.3,4.6-5.2,8.3-5.1c2.4,0.1,4.5,0.7,5.9,2.8c1.1,1.6,1.2,3.4,1.1,5.2
			c-0.2,1.9-0.5,3.7-1.5,5.3c-0.8,1.3-1.7,2.5-3.3,2.8c-2.1,0.4-3.6-1.1-3.1-3.2c0.5-1.8,1-3.6,1.5-5.4c0.2-0.7,0.2-1.5,0-2.1
			c-0.5-2.4-3.3-3.2-5.2-1.5c-1.6,1.4-2,3.3-1.9,5.3c0.1,0.7,0.3,1.4,0.4,2c0,0.2,0,0.5,0,0.7c-0.8,3.4-1.6,6.7-2.3,10.1
			c-0.6,2.9-0.7,4.4-0.2,6c0.2,0.6,0.4,1.2,0.9,1.4c0.9,0.2,2-1.4,2.4-2c0.7-1,1.3-2.1,2.4-6.7c0.1-0.6,0.3-1.2,0.4-1.7
			c1,0.4,1.9,1,2.8,1.2c3.6,0.7,6.7-0.5,9-3.3c2-2.3,2.8-5,3.1-8c0.3-2.9-0.2-5.6-1.8-7.9C36.3,12.9,35.4,12,34.3,11.2z"/>
		<path class="st2" d="M40.5,7.7c-4.1-3.8-9-5.5-14.4-5.5c0,0,0,0,0,0c-0.4,0-0.9,0-1.3,0c-6.9,0.3-13,2.4-17.2,7.8
			c-6,7.2-8.8,20.5,1.4,31.1c4.4,4.6,10.3,6.5,16.6,6.5c0.4,0,0.8,0,1.1,0c6.7-0.2,12-3.5,16.2-8.4c3.6-4.3,4.8-9.5,4.8-15.1
			C47.8,17.6,45.3,12.1,40.5,7.7z M41.2,37.8c-4.1,4.9-9,7.4-14.5,7.6c-0.4,0-0.7,0-1,0c-6.2,0-11.2-1.9-14.9-5.8
			C6.5,35.3,4.4,30,4.5,24.5c0.2-4.7,1.9-9.3,4.8-12.9c0,0,0,0,0.1-0.1c5.1-6.7,14-6.9,15.5-6.9c1.8-0.1,5.5-0.2,9.6,1.8
			C35,6.6,36.9,7.5,39,9.4c4.4,4.1,6.6,8.9,6.5,14.8C45.4,30.1,44.1,34.4,41.2,37.8z"/>
	</g>
</g>
<g id="Layer_7">
	<g>
		<path class="st3" d="M25.4,34.5c0.2,0,0.4,0,0.5,0c2.8-0.1,5.3-1.4,7.4-3.9c1.5-1.7,2.1-3.9,2.2-6.9c0-1.7-0.3-3.2-1-4.6
			c-0.5-1.1-1.3-2-2.3-2.9c-1.8-1.6-3.9-2.5-6.5-2.5v-1.1v-1.1l0,1.1l0,1.1c-0.2,0-0.4,0-0.6,0c-3.7,0.2-6.2,1.3-7.9,3.5l0,0l0,0
			c-0.3,0.4-0.7,0.9-1,1.6c-1.7,3-2.7,8.1,1.7,12.7C19.6,33.5,22.2,34.5,25.4,34.5z"/>
		<path class="st3" d="M46.2,28.6c0-4.4,0-7.7,0-7.7c0-0.7,0.1-1.5-0.4-1.9c-0.4-0.3-0.8-0.2-1.2-0.2c-1.1,0.1-2.2,0-3.3,0
			c-3.2,0-4-0.2-4.3,0.3c-0.2,0.3,0,0.6,0.3,1.6c0,0,0.2,0.6,0.5,3.1c0.3,1.8-0.3,5.4-2.7,8.4c-0.9,1.2-2.9,3.2-5.9,4.2
			c-0.4,0.1-1.8,0.5-3.7,0.5c-1.1,0-5.6-0.1-9.2-3.6c-0.8-0.8-3.2-3.1-3.5-6.3c-0.2-2-0.5-4.6,0.6-6.9c0.1-0.2,0.4-0.7,0.2-1.1
			c-0.4-0.6-1.7,0.1-4.5,0c-1.2,0-2.3,0.1-3.5,0c-0.4,0-0.8-0.1-1.1,0.2C3.9,19.5,4,20.1,4,21.1c0,0.8,0,1.5,0,2.3c0,2.5,0,5,0,7.4
			c0,1.3,0,1.1,0,1.5c0,5.8-0.5,11.1,1.2,12.8c0.3,0.3,0.7,0.5,0.7,0.5C6.5,46,7,46,8.5,46.1c2.2,0.1,3,0.3,4.3,0l0,0
			c1.4-0.2,4.1-0.1,9.3,0c1.9,0,1.5,0.1,3.9,0.1c7.4,0.2,6.4-0.2,10.1,0c1.1,0.1,3.9,0.2,7.2-0.3c0.8-0.1,1.2-0.2,1.6-0.5
			c1.2-0.8,1.4-2.5,1.4-7.5C46.3,29.2,46.2,29.4,46.2,28.6z"/>
		<path class="st2" d="M48.6,26.9c-0.2-6.7-0.3-10.1-0.1-13c0.1-1.7-0.1-3.3,0-5c0.1-1.8,0.2-3.5-0.8-4.9c-0.4-0.5-0.9-1-0.9-1
			S46,2.4,44.8,1.9c-2.5-0.9-7.9-0.6-9.3-0.5c-0.1,0-2.1,0-5.9,0.1c0,0-7.9,0.1-17.2-0.1c-0.2,0-1.4,0-3.1,0c-1,0-1.5,0-1.7,0
			c-1,0.1-2.9,0.2-4.5,1.5c-0.3,0.3-1.6,1.3-2,3C0.9,6.8,1,7.5,1.1,8c0.3,2.2,0.1,4.4,0.3,6.6c0.1,1.7,0.1,3.1,0.2,6
			c0.1,3.8,0,4,0,8c0,7.1,0.1,5.5,0.1,7.6c0,0-0.2,4.1,0.5,8.3c0.1,0.5,0.2,1.3,0.8,2.1c0.9,1.2,2.3,1.6,2.7,1.8
			c0.8,0.2,1.4,0.3,1.8,0.3c1.9,0,3.5-0.1,4.5-0.1c3.9-0.1,5.5-0.2,8-0.1c1.2,0,2.5,0.1,3.9,0.1c4,0.1,8.8,0.2,12.5,0.1
			c0.9,0,2.3-0.1,4.3-0.1c1.2,0,1.2,0,1.6,0c1.8-0.1,3.6-0.7,4.4-1.2c1.7-1,2.2-3.5,2.4-8.6C49.1,34.1,48.8,32.6,48.6,26.9z
			 M36.9,5.8c0-0.2,0-0.7,0.3-1c0.3-0.3,0.7-0.4,1.1-0.4c1-0.2,1.7-0.1,2.3-0.1c1.1,0,1.9,0,3.1,0.1c0.3,0,0.7,0.1,1.1,0.4
			c0.2,0.2,0.3,0.5,0.4,1.1c0.1,0.8,0.1,1.4,0.1,1.9c-0.1,1.5,0.1,2.1-0.1,3.5c0,0.3-0.1,0.7-0.4,1.1c-0.3,0.3-0.7,0.4-1.1,0.4
			c-1,0.1-1.7,0.1-2.6,0.1c-1,0-1.7,0.1-2.8-0.1c-0.3,0-0.7-0.1-1.1-0.4c-0.3-0.3-0.3-0.7-0.3-0.9C36.8,10.1,36.8,9.4,36.9,5.8z
			 M16,18.8c0.3-0.6,0.7-1.1,1-1.6l0,0l0,0c1.7-2.2,4.2-3.3,7.9-3.5c0.2,0,0.4,0,0.6,0l0-1.1l0-1.1v1.1v1.1c2.6,0,4.7,0.8,6.5,2.5
			c1,0.9,1.7,1.9,2.3,2.9c0.7,1.4,1,2.9,1,4.6c0,3-0.7,5.2-2.2,6.9c-2.1,2.5-4.5,3.8-7.4,3.9c-0.2,0-0.4,0-0.5,0
			c-3.2,0-5.7-1-7.6-2.9C13.3,26.9,14.4,21.8,16,18.8z M45,45.4c-0.4,0.3-0.8,0.4-1.6,0.5c-2.5,0.4-4.1,0.4-7.2,0.3
			c-0.5,0-1.8,0-4.5,0c-2,0-3.4,0-5.5,0c-0.9,0-1.5,0-1.7-0.1C21,46,7.3,46.4,5.8,45.6c-0.4-0.2-0.7-0.5-0.7-0.5s-0.3-0.4-0.4-0.9
			C3.9,41.4,4,30.8,4,30.8c0-4.4,0-6.6,0-7.4c0-0.8,0.1-1.5,0-2.3c0-1-0.1-1.6,0.2-1.9c0.3-0.3,0.8-0.3,1.1-0.2
			c1.2,0.1,2.3-0.1,3.5,0c2.8,0.1,4.2-0.6,4.5,0c0.2,0.3-0.1,0.8-0.2,1.1c-1.1,2.3-0.8,4.9-0.6,6.9c0.3,3.2,2.7,5.5,3.5,6.3
			c3.6,3.5,8.2,3.6,9.2,3.6c1.9,0,3.4-0.4,3.7-0.5c3.1-1,5-3,5.9-4.2c2.4-3,3-6.6,2.7-8.4c-0.4-2.5-0.5-3.1-0.5-3.1
			c-0.3-1-0.5-1.2-0.3-1.6c0.3-0.5,1.1-0.3,4.3-0.3c1.1,0,2.2,0.1,3.3,0c0.4,0,0.9-0.1,1.2,0.2c0.5,0.4,0.5,1.3,0.4,1.9
			c0,0,0,3.4,0,7.7c0,0.8,0.1,0.6,0.2,9.3C46.4,42.9,46.2,44.6,45,45.4z"/>
	</g>
</g>
<g id="Twitter" class="st0">
	<g class="st1">
		<path class="st2" d="M44.7,13.3c-0.1-0.3,0.3-0.5,0.5-1.1c0-0.1,0.3-1-0.2-1.6c-0.4-0.6-1.2-0.6-1.6-0.6c-0.4,0-0.7,0.1-0.9,0.1
			c-2,0.5-2.6,1.1-3.6,1c-0.7-0.1-1.1-0.5-1.7-1c-1.9-1.4-4.5-1.8-6.5-1.5c-2,0.3-4.6,1.5-5.6,3.5c-1.1,2.2-1.8,3.5-1.9,4.3
			c0,0.1,0,0.4-0.3,0.6c-0.3,0.3-0.8,0.1-1.3,0c-1.8-0.3-3-1.4-4.2-2.5c-1.4-1.3-5.4-5.3-5.4-5.3c-0.3-0.3-0.9-0.9-1.8-0.9
			c0,0,0,0-0.1,0c-0.8,0-1.4,0.4-1.9,1c-0.5,0.8-1.3,2-1.5,3.6c-0.1,1.2-0.2,2.6,0.2,3.7c0.1,0.2,0.3,0.7,0.1,1.2
			C7,18,6.7,18.1,6.6,18.2c-1.2,0.9,0.3,6.1,1.6,7.3c0.1,0.1,0.5,0.5,0.5,1c0,0.3-0.1,0.5-0.1,0.6c-0.4,1,0.5,2.5,1,3.3
			c0.4,0.6,1,1.6,2,2.5c-1.1,0.3-2.1,0.3-2.8,0.3C7.5,33.1,7,32.8,6,33c-0.1,0-1.8,0.4-2.1,1.4c-0.5,1.6,2.9,4.2,5.4,5.4
			c2.2,1.1,4.3,1.4,5.7,1.6c1.3,0.2,2.6,0.3,3.9,0.3c1.4,0,2.8-0.1,4.2-0.4c2.2-0.4,4-1,5.7-1.8c1-0.5,2-1.1,3.2-1.9
			c1.2-0.8,2.4-1.8,3.7-3.2c1.1-1.2,2.1-2.6,3-4c1.1-1.9,2.2-3.6,2.6-6c0.5-2.6,0-4.1,1.1-5.1c0.4-0.3,1-0.6,1.9-1.5
			c0.6-0.5,0.9-0.8,1.1-1.2c0.5-0.9,0.8-2.3,0.3-2.8C45.4,13.4,44.9,13.6,44.7,13.3z M39.9,18.9c-0.2,0.6-0.2,0.9-0.2,1.8
			c0,0-0.1,0.9-0.6,3.2c-0.2,1.1-1.5,5.3-5.1,9c-5.4,5.6-12.5,6.5-15.1,6.5h0c-1,0-4.6,0-8.6-1.7c-1.7-0.7-3.8-1.8-3.6-2.3
			c0.2-0.5,2.5,0.3,6-0.3c2.3-0.4,4.6-1.5,4.5-2.1c-0.1-0.4-1.3-0.2-2.8-0.9c-2.7-1.3-4-4.4-3.6-4.8c0.2-0.2,0.6,0.3,1.6,0.4
			c0.7,0,1.5-0.1,1.6-0.3c0.1-0.3-1.4-0.5-2.9-1.7c-0.9-0.8-1.3-1.5-1.5-1.7C9.1,23.4,9,23,8.8,22.3c-0.3-1-0.7-2.5-0.3-2.7
			c0.2-0.1,0.5,0.3,1.6,0.7c0.6,0.3,1.6,0.6,1.7,0.4c0.2-0.3-1.4-1-2.2-2.9c-0.4-0.8-0.5-1.6-0.5-2c-0.1-1-0.1-1.9,0-2.4
			c0.2-1.4,0.4-2.4,0.9-2.6c1.1-0.5,2.8,3.1,7,6c3.9,2.7,7.7,3.2,7.9,2.7c0.1-0.1,0.1-0.6,0.1-0.7c0-0.4,0-0.6,0-0.7
			c0-0.9,0.2-1.8,0.5-2.6c0.4-1,0.9-1.6,1.4-2.2c0.8-1,1.2-1.5,2-2c1.2-0.6,2.3-0.6,3.6-0.6c0.6,0,1.2,0,2.1,0.3
			c0.5,0.2,1.1,0.4,2.2,1.1c1.2,0.8,0.9,0.8,1.3,0.9c0.2,0.1,0.8,0.2,2.9-0.6c1.5-0.6,1.9-0.9,2.1-0.7c0.2,0.3-0.3,1.4-1.2,2.2
			c-1.1,1-2.2,1.2-2.1,1.4c0.1,0.2,1.4,0.2,2.6-0.1c0.7-0.2,1.3-0.4,1.3-0.3c0.1,0.2-0.5,0.7-0.7,0.9c-0.6,0.5-0.9,0.7-1.4,1
			C41.5,16.9,40.4,17.7,39.9,18.9z"/>
	</g>
</g>
<g id="Facebook" class="st0">
	<path class="st4" d="M48.6,48.4c0.1,0,0.1-0.1,0.2-0.1c0.2-0.2,0.3-0.5,0.3-0.8c0-0.1,0-0.1,0-0.1c0-0.1,0-0.1,0-0.1
		c0-0.5,0-1.1-0.1-1.7c0-0.3,0-0.6-0.1-0.8v0c-0.1-2-0.2-4-0.3-5.7c-0.2-2.6-0.3-5.3-0.3-8c0-1.2,0-2.5,0-3.9l0-3.9
		c0.1-2.6,0-5.4-0.2-8.6l0-0.2c-0.1-1.3-0.1-2.7-0.2-4.1l0-1c-0.1-1.9-0.1-3.9-0.2-5.9c0-0.1,0-0.1,0-0.3c0,0,0,0,0-0.1
		C47.9,2.9,48,2.7,48,2.4c0-0.4-0.1-1.2-1.5-1.3c-0.5,0-1.1,0-1.7,0c-0.3,0-0.6,0-0.8,0l0,0c-2,0-4,0.1-5.7,0.2
		c-2.6,0.1-5.3,0.2-8,0.2c-1.2,0-2.5-0.1-3.9-0.1l-3.9-0.1c-2.6-0.2-5.4-0.1-8.6,0l-0.2,0c-1.3,0-2.7,0.1-4.1,0.1l-1,0
		c-1.9,0-3.9,0.1-5.9,0.1c-0.1,0-0.1,0-0.2,0C2.3,1.5,2.2,1.5,2,1.5c-0.3,0-0.6,0.1-0.7,0.3c0,0-0.1,0-0.1,0.1
		C0.9,2.1,0.8,2.4,0.8,2.7c0,0,0,0.1,0,0.1c0,0.2,0,0.4,0,0.5l0,0.2c0,4.1,0.2,7.8,0.4,11.2c0.2,2.8,0.2,5.6,0.2,8.4l0,1.7
		c0,1.3,0,2.6,0,3.9c0,3-0.1,6.2,0.2,9.3c0.2,2.2,0.3,4.4,0.3,6.6c0,0.8,0,1.7,0.1,2.5c0,0.1,0,0.3,0.1,0.5c0,0.4,0.2,1.1,1.5,1.2
		c0.5,0,1.1,0,1.7,0c0.3,0,0.6,0,0.8,0l0,0c2,0,4-0.1,5.7-0.1c2.6-0.1,5.3-0.2,8-0.1c1.2,0,2.5,0.1,3.9,0.1l3.9,0.1
		c2.6,0.2,5.4,0.1,8.6,0l0.2,0c1.3,0,2.7-0.1,4.1-0.1l1,0c1.9,0,3.9,0,5.9-0.1c0,0,0,0,0,0c0.1,0.1,0.3,0.1,0.5,0.1
		c0.2,0,0.4,0,0.7-0.2C48.6,48.5,48.6,48.5,48.6,48.4C48.6,48.4,48.6,48.4,48.6,48.4z M36,46.4c-2.3,0.1-4.7,0.1-7,0
		c0-1.7,0-3.4,0.1-5.1l0-1.7c0-1.3,0.1-2.6,0.1-3.9c0.1-2.9,0.2-5.8,0-8.7c0.5,0,0.9,0,1.3,0c1.3,0,3.8,0.2,4.3-0.5
		c0.2-0.4,0.3-0.8,0.3-0.8c0-0.2,0-0.5-0.2-0.8c-0.1-0.1-0.4-0.4-1.3-0.6c-0.9-0.1-1.7,0-1.7,0c-0.3,0.1-1.2,0.1-2.8,0.2
		C29,22.9,29,21.3,29,19.7c0-0.2-0.1-1.2,0-2.5c0.1-1.2,0.1-1.9,0.4-2.7c0.1-0.2,0.6-1.6,1.9-2.6c1.7-1.3,4.7-1.9,7-1
		c0.5,0.2,1.3,0.6,1.9,0.2c0.4-0.3,0.6-0.8,0.5-1.3c-0.1-0.5-0.7-0.8-1.4-1c-3.7-1.2-6.3-0.4-6.3-0.4c-0.7,0.2-3.7,1.2-5.3,4
		c-1,1.7-1,4.1-1,9c0,0.3,0,1.3,0.1,3.2c-1.2,0-2.7,0-4.4,0c-0.3,0-0.9,0-1.3,0.4c-0.1,0.2-0.2,0.4-0.3,0.8c0,0.1,0,0.5,0.2,0.8
		c0.3,0.4,0.8,0.4,1,0.4c1.2,0.1,3,0,4.7,0c0.1,3.1,0.1,4.4,0.1,6.4c0,1.2-0.1,2.5-0.1,3.9l-0.1,3.9c-0.1,1.6-0.1,3.3-0.1,5.2
		l-0.6,0c-1.3,0-2.6-0.1-3.9-0.1c-3-0.1-6.2-0.2-9.3,0c-2.2,0.2-4.4,0.2-6.6,0.2c-0.5,0-1.1,0-1.6,0c0-0.3,0-0.6-0.1-0.9
		c0-0.3,0-0.6-0.1-0.8v0c-0.1-2-0.2-4-0.3-5.7c-0.2-2.6-0.3-5.3-0.3-8c0-1.2,0-2.5,0-3.9l0-3.9c0.1-2.6,0-5.4-0.2-8.6l0-0.2
		c-0.1-1.3-0.1-2.7-0.2-4.1l0-1C3.3,7.5,3.3,5.7,3.2,3.9c4,0,7.5,0,10.9-0.1c2.8-0.1,5.6-0.1,8.4,0l1.7,0c1.3,0,2.6,0.1,3.9,0.1
		c3,0.1,6.2,0.2,9.3,0c2.2-0.2,4.4-0.2,6.6-0.2c0.5,0,1.1,0,1.6,0c0,4.1,0.2,7.7,0.4,11.1c0.2,2.8,0.2,5.6,0.2,8.4l0,1.7
		c0,1.3,0,2.6,0,3.9c0,3-0.1,6.2,0.2,9.3c0.2,2.2,0.3,4.4,0.3,6.6c0,0.5,0,1.1,0,1.6C42.7,46.2,39.2,46.2,36,46.4z"/>
</g>
<g id="Phone" class="st0">
	<g class="st1">
		<path class="st2" d="M27.4,10.1c0,0.3,0.2,0.5,0.4,0.6c0.4,0.2,0.9,0.1,1.1,0.1c1.8-0.5,3.4-1.1,3.4-1.1c1.8-0.8,3.5-1.2,3.7-1.9
			c0.1-0.3,0-0.6,0-0.6s-0.1-0.4-0.4-0.6c-0.8-0.6-2.9,1-6.4,2.4C28.5,9.1,27.4,9.5,27.4,10.1z"/>
		<path class="st2" d="M26.4,6.6c0.6,0.2,1.2-0.2,2-0.7c2.8-1.9,3.2-2.1,3.1-2.5c-0.1-0.4-0.6-0.8-1-0.9c-0.5-0.1-0.9,0.1-3.2,2
			c-1,0.8-1.5,1.2-1.4,1.6C25.9,6.4,26.3,6.5,26.4,6.6z"/>
		<path class="st2" d="M23.3,4.1c0.4,0,0.7-0.4,0.9-0.6c1.2-1.4,1.8-2.1,1.6-2.6c-0.1-0.4-0.6-0.9-1-0.9c-0.5,0-0.9,0.6-1.5,1.8
			c-0.6,1-0.9,1.7-0.7,2C22.7,4.1,23,4.2,23.3,4.1z"/>
		<path class="st2" d="M30,13.4c-0.7,0-1.9,0-2.1,0.5c-0.1,0.3,0.1,0.7,0.2,0.7c0.3,0.5-0.2,0.5,3.8,0.3c1.2-0.1,1.7-0.2,2-0.6
			c0.2-0.3,0.3-0.7,0.1-1c-0.2-0.2-0.5-0.3-1.3-0.3C31.6,13.2,30.8,13.4,30,13.4z"/>
		<path class="st2" d="M37.9,42.8c-0.4-2.3-2-4.8-4.3-5.3c-2.7-0.6-3.9,2.4-6.4,2c-2.4-0.4-3.8-4-6.4-11.1c-3-8.1-2.5-9.6-1.9-10.3
			c1.5-1.9,4.5-0.3,6.2-2.4c1.4-1.8,1.1-4.8,0-6.8c-0.2-0.4-1.3-2.2-3.3-2.9c-3.2-1-6.7,1.2-8.4,3.6c-2,2.8-1.5,5.9-0.5,11.9
			c0.7,4,1.7,9.7,5.4,16.6c3.4,6.4,5.6,10.6,10,11.6c2.7,0.6,6.9,0.2,8.8-2.5C38.3,45.4,38,43.3,37.9,42.8z"/>
	</g>
</g>
<g id="E-Mail" class="st0">
	<path class="st4" d="M49.8,36.3c0-0.3,0-0.6-0.1-0.9v0c-0.1-2-0.2-4.2-0.3-5.9c-0.2-2.7-0.3-5.5-0.3-8.3c0-1.3,0-2.6,0-4
		c-0.1-2.1-0.1-3.6,0-4.8c0.1-0.8,0.2-1.8-0.5-2.3c-0.4-0.3-0.8-0.4-1.2-0.4c-3.9,0.1-7.8,0.2-11.8,0.2c-2.9,0-5.8,0-8.7,0.1l-1.8,0
		c-1.3,0-2.7-0.1-4.1-0.1C18,9.8,14.8,9.7,11.6,10c-2.2,0.2-4.5,0.2-6.8,0.2c-5,0,0.4,0-2.6,0c-0.9,0-1.4,0-1.7,0.4
		c-0.2,0.2-0.2,0.4-0.2,1.7c0,0.6,0,1.1,0,1.6c0,1.5,0,3.5,0,5.8c0,3.1-0.1,6,0.2,9.6c0.2,2.2,0.3,4.5,0.3,6.8c0,0.9,0,1.8,0.1,2.6
		c0,0.5,0.1,1,0.5,1.3c0.3,0.2,0.5,0.2,1,0.2c0.7,0,1.4,0.1,2,0c2.3-0.2,4.6-0.1,6.8-0.2c1-0.1,3.4-0.1,8.3-0.2
		c6.9-0.1,8.2,0,16.6-0.2c3.4,0,3.3-0.1,3.9,0c2.7,0.1,5.5-0.2,8.2,0c0.3,0,1.1,0.1,1.5-0.4c0.2-0.3,0.3-0.6,0.3-1.2
		C49.9,37.6,49.8,37.4,49.8,36.3z M4.7,12.8L4.7,12.8c2,0,4.2-0.1,5.9-0.2c2.7-0.1,5.5-0.2,8.3-0.2c1.3,0,2.6,0,4,0.1l4,0.1
		c2.7,0.2,5.6,0.1,8.9-0.1l0.2,0c1.4,0,2.8-0.1,4.2-0.1l1.1,0c1.1,0,2.1-0.1,3.2-0.1c-0.8,0.6-1.6,1.2-2.4,1.8l-1.4,1
		c-2.3,1.7-4.7,3.4-7.1,5c-3,1.9-6.1,4.1-9.5,6.6c-3.4-2.5-6.6-4.6-9.5-6.6c-2.4-1.6-4.8-3.3-7.1-5l-1.4-1c-0.6-0.4-1.1-0.8-1.7-1.3
		C4.5,12.8,4.6,12.8,4.7,12.8z M36.2,37.4c-2.9,0.1-5.8,0.1-8.7,0.1l-1.8,0c-1.3,0-2.7-0.1-4.1-0.1c-3.1-0.1-6.4-0.2-9.6,0.1
		c-2.2,0.2-4.5,0.2-6.8,0.2c-0.6,0-1.2,0-1.8,0c0-0.2,0-0.4,0-0.7c-0.2-2.8-0.3-4.9-0.3-6.8c-0.2-6-0.3-6-0.3-8.3c0-1.3,0-2.6,0-4
		l0-3.2l3.2,2.4c1.4,1.1,2.6,1.9,3.4,2.5c1.7,1.2,2.7,1.8,5.8,3.9c0.8,0.5,1.4,0.9,1.8,1.2c3.5,2.3,4.9,3.4,5.4,3.9
		c0.1,0.1,0.5,0.5,1.1,0.7c0.5,0.2,0.8,0.1,0.9,0.1c0.5-0.1,0.7-0.4,0.8-0.5c0.5-0.5,2.4-1.8,5.2-3.6c0.6-0.4,1.5-1,2.6-1.8
		c2.9-2,3.9-2.6,5.8-3.9c0.8-0.6,2-1.4,3.4-2.5l3.2-2.4c0.4-0.3,0.8-0.6,1.1-0.8l0,1.1c0,1.3,0,2.7,0,4.1c0,3.1-0.1,6.4,0.2,9.6
		c0.2,2.2,0.3,4.5,0.3,6.8c0,0.6,0,1.1,0,1.7C43.1,37.1,39.5,37.2,36.2,37.4z"/>
</g>
<g id="Web" class="st0">
	<g class="st1">
		<path class="st2" d="M36.6,9.4C36.3,9,35.7,8.9,35.2,9c-0.5,0.1-0.8,0.5-2.1,3.3c-0.6,1.2-0.9,1.8-0.6,2.2
			c0.2,0.3,0.7,0.2,0.8,0.2c0.7-0.1,1.1-0.8,1.5-1.6C36.6,10.1,36.8,9.7,36.6,9.4z"/>
		<path class="st2" d="M29.3,13.8c0.3,0.1,0.6-0.1,0.8-0.3c0.3-0.3,0.3-0.8,0.4-1.1c0.1-1.9,0.1-2.9-0.4-3.2c-0.4-0.3-1-0.3-1.4,0
			c-0.4,0.3-0.3,1.1-0.1,2.5C28.7,12.9,28.8,13.7,29.3,13.8z"/>
		<path class="st2" d="M39.1,14.3c-0.5-0.3-1.1,0.1-2.4,0.8c-1,0.6-1.7,1-1.7,1.5c0,0.3,0.3,0.5,0.5,0.6c0.4,0.2,0.8,0.1,1.1-0.1
			c1.8-0.6,2.7-0.9,2.9-1.5C39.6,15.2,39.5,14.6,39.1,14.3z"/>
		<path class="st2" d="M31.1,16.7c-1,0-2.6,1-4.7,2c-4.9,2.5-9.7,5.4-14.7,7.8c-0.3,0.1-1.1,0.5-1.2,1.2c-0.1,0.4,0.2,0.8,0.2,0.8
			c0.3,0.4,0.7,0.6,0.9,0.6c0.5,0.2,3.9,1.4,6.2,2.8c-0.8,1.1-2.7,3.2-5.7,6.7c-0.2,0.2-0.6,0.7-0.5,1.3c0,0.2,0.2,0.5,0.4,0.7
			c0.1,0.1,0.4,0.3,0.7,0.3c0.5,0,0.8-0.3,1-0.5c1.5-1.5,4-4.8,5.5-6.4c0.1-0.1,0.3-0.3,0.5-0.5c1.7,1.7,3.2,4,3.6,4.8
			c0.1,0.1,0.3,0.7,1,1.1c0.2,0.1,0.4,0.3,0.7,0.3c0,0,0.1,0,0.1,0c0.7-0.1,1-1.2,1.1-1.6c4.3-13.9,4.7-15.8,5.7-19.4
			c0.1-0.5,0.4-1.5-0.1-1.9C31.6,16.8,31.4,16.7,31.1,16.7z M24.5,36c-0.8-1.2-2-2.9-3.4-4.1c-0.4-0.3-0.7-0.7-1.1-0.9
			c-0.3-0.2-0.6-0.5-1-0.7c-1.5-1-3.4-1.8-4.8-2.4c2.3-1.2,4.6-2.4,6.9-3.7c2.1-1.1,4.2-2.3,6.3-3.4c0.3-0.2,0.6-0.3,1-0.5
			c0.3-0.1,0.6-0.3,0.9-0.4C28.5,22.6,27.7,25.5,24.5,36z"/>
	</g>
</g>
</svg>
