<?xml version="1.0" encoding="utf-8"?>
<!-- Generator: Adobe Illustrator 19.2.1, SVG Export Plug-In . SVG Version: 6.00 Build 0)  -->
<svg version="1.1" xmlns="http://www.w3.org/2000/svg" xmlns:xlink="http://www.w3.org/1999/xlink" x="0px" y="0px"
	 viewBox="0 0 50 50" style="enable-background:new 0 0 50 50;" xml:space="preserve">
<style type="text/css">
	.st0{fill:#63432D;}
	.st1{fill:none;}
</style>
<g id="Web">
</g>
<g id="E-Mail">
</g>
<g id="Cell">
</g>
<g id="Land_Line">
</g>
<g id="Facebook">
</g>
<g id="Twitter">
</g>
<g id="Instagram">
	<g>
		<path class="st1" d="M25.4,34.5c0.2,0,0.4,0,0.5,0c2.8-0.1,5.3-1.4,7.4-3.9c1.5-1.7,2.1-3.9,2.2-6.9c0-1.7-0.3-3.2-1-4.6
			c-0.5-1.1-1.3-2-2.3-2.9c-1.8-1.6-3.9-2.5-6.5-2.5v-1.1v-1.1l0,1.1l0,1.1c-0.2,0-0.4,0-0.6,0c-3.7,0.2-6.2,1.3-7.9,3.5l0,0l0,0
			c-0.3,0.4-0.7,0.9-1,1.6c-1.7,3-2.7,8.1,1.7,12.7C19.6,33.5,22.2,34.5,25.4,34.5z"/>
		<path class="st1" d="M46.2,28.6c0-4.4,0-7.7,0-7.7c0-0.7,0.1-1.5-0.4-1.9c-0.4-0.3-0.8-0.2-1.2-0.2c-1.1,0.1-2.2,0-3.3,0
			c-3.2,0-4-0.2-4.3,0.3c-0.2,0.3,0,0.6,0.3,1.6c0,0,0.2,0.6,0.5,3.1c0.3,1.8-0.3,5.4-2.7,8.4c-0.9,1.2-2.9,3.2-5.9,4.2
			c-0.4,0.1-1.8,0.5-3.7,0.5c-1.1,0-5.6-0.1-9.2-3.6c-0.8-0.8-3.2-3.1-3.5-6.3c-0.2-2-0.5-4.6,0.6-6.9c0.1-0.2,0.4-0.7,0.2-1.1
			c-0.4-0.6-1.7,0.1-4.5,0c-1.2,0-2.3,0.1-3.5,0c-0.4,0-0.8-0.1-1.1,0.2C3.9,19.5,4,20.1,4,21.1c0,0.8,0,1.5,0,2.3c0,2.5,0,5,0,7.4
			c0,1.3,0,1.1,0,1.5c0,5.8-0.5,11.1,1.2,12.8c0.3,0.3,0.7,0.5,0.7,0.5C6.5,46,7,46,8.5,46.1c2.2,0.1,3,0.3,4.3,0l0,0
			c1.4-0.2,4.1-0.1,9.3,0c1.9,0,1.5,0.1,3.9,0.1c7.4,0.2,6.4-0.2,10.1,0c1.1,0.1,3.9,0.2,7.2-0.3c0.8-0.1,1.2-0.2,1.6-0.5
			c1.2-0.8,1.4-2.5,1.4-7.5C46.3,29.2,46.2,29.4,46.2,28.6z"/>
		<path class="st0" d="M48.6,26.9c-0.2-6.7-0.3-10.1-0.1-13c0.1-1.7-0.1-3.3,0-5c0.1-1.8,0.2-3.5-0.8-4.9c-0.4-0.5-0.9-1-0.9-1
			S46,2.4,44.8,1.9c-2.5-0.9-7.9-0.6-9.3-0.5c-0.1,0-2.1,0-5.9,0.1c0,0-7.9,0.1-17.2-0.1c-0.2,0-1.4,0-3.1,0c-1,0-1.5,0-1.7,0
			c-1,0.1-2.9,0.2-4.5,1.5c-0.3,0.3-1.6,1.3-2,3C0.9,6.8,1,7.5,1.1,8c0.3,2.2,0.1,4.4,0.3,6.6c0.1,1.7,0.1,3.1,0.2,6
			c0.1,3.8,0,4,0,8c0,7.1,0.1,5.5,0.1,7.6c0,0-0.2,4.1,0.5,8.3c0.1,0.5,0.2,1.3,0.8,2.1c0.9,1.2,2.3,1.6,2.7,1.8
			c0.8,0.2,1.4,0.3,1.8,0.3c1.9,0,3.5-0.1,4.5-0.1c3.9-0.1,5.5-0.2,8-0.1c1.2,0,2.5,0.1,3.9,0.1c4,0.1,8.8,0.2,12.5,0.1
			c0.9,0,2.3-0.1,4.3-0.1c1.2,0,1.2,0,1.6,0c1.8-0.1,3.6-0.7,4.4-1.2c1.7-1,2.2-3.5,2.4-8.6C49.1,34.1,48.8,32.6,48.6,26.9z
			 M36.9,5.8c0-0.2,0-0.7,0.3-1c0.3-0.3,0.7-0.4,1.1-0.4c1-0.2,1.7-0.1,2.3-0.1c1.1,0,1.9,0,3.1,0.1c0.3,0,0.7,0.1,1.1,0.4
			c0.2,0.2,0.3,0.5,0.4,1.1c0.1,0.8,0.1,1.4,0.1,1.9c-0.1,1.5,0.1,2.1-0.1,3.5c0,0.3-0.1,0.7-0.4,1.1c-0.3,0.3-0.7,0.4-1.1,0.4
			c-1,0.1-1.7,0.1-2.6,0.1c-1,0-1.7,0.1-2.8-0.1c-0.3,0-0.7-0.1-1.1-0.4c-0.3-0.3-0.3-0.7-0.3-0.9C36.8,10.1,36.8,9.4,36.9,5.8z
			 M16,18.8c0.3-0.6,0.7-1.1,1-1.6l0,0l0,0c1.7-2.2,4.2-3.3,7.9-3.5c0.2,0,0.4,0,0.6,0l0-1.1l0-1.1v1.1v1.1c2.6,0,4.7,0.8,6.5,2.5
			c1,0.9,1.7,1.9,2.3,2.9c0.7,1.4,1,2.9,1,4.6c0,3-0.7,5.2-2.2,6.9c-2.1,2.5-4.5,3.8-7.4,3.9c-0.2,0-0.4,0-0.5,0
			c-3.2,0-5.7-1-7.6-2.9C13.3,26.9,14.4,21.8,16,18.8z M45,45.4c-0.4,0.3-0.8,0.4-1.6,0.5c-2.5,0.4-4.1,0.4-7.2,0.3
			c-0.5,0-1.8,0-4.5,0c-2,0-3.4,0-5.5,0c-0.9,0-1.5,0-1.7-0.1C21,46,7.3,46.4,5.8,45.6c-0.4-0.2-0.7-0.5-0.7-0.5s-0.3-0.4-0.4-0.9
			C3.9,41.4,4,30.8,4,30.8c0-4.4,0-6.6,0-7.4c0-0.8,0.1-1.5,0-2.3c0-1-0.1-1.6,0.2-1.9c0.3-0.3,0.8-0.3,1.1-0.2
			c1.2,0.1,2.3-0.1,3.5,0c2.8,0.1,4.2-0.6,4.5,0c0.2,0.3-0.1,0.8-0.2,1.1c-1.1,2.3-0.8,4.9-0.6,6.9c0.3,3.2,2.7,5.5,3.5,6.3
			c3.6,3.5,8.2,3.6,9.2,3.6c1.9,0,3.4-0.4,3.7-0.5c3.1-1,5-3,5.9-4.2c2.4-3,3-6.6,2.7-8.4c-0.4-2.5-0.5-3.1-0.5-3.1
			c-0.3-1-0.5-1.2-0.3-1.6c0.3-0.5,1.1-0.3,4.3-0.3c1.1,0,2.2,0.1,3.3,0c0.4,0,0.9-0.1,1.2,0.2c0.5,0.4,0.5,1.3,0.4,1.9
			c0,0,0,3.4,0,7.7c0,0.8,0.1,0.6,0.2,9.3C46.4,42.9,46.2,44.6,45,45.4z"/>
	</g>
</g>
<g id="Pinterest">
</g>
<g id="Address">
</g>
<g id="LinkedIn">
</g>
</svg>
