<?xml version="1.0" encoding="utf-8"?>
<!-- Generator: Adobe Illustrator 19.2.1, SVG Export Plug-In . SVG Version: 6.00 Build 0)  -->
<svg version="1.1" xmlns="http://www.w3.org/2000/svg" xmlns:xlink="http://www.w3.org/1999/xlink" x="0px" y="0px"
	 viewBox="0 0 50 50" style="enable-background:new 0 0 50 50;" xml:space="preserve">
<style type="text/css">
	.st0{fill:#63432D;}
	.st1{fill:none;}
</style>
<g id="Web">
</g>
<g id="E-Mail">
</g>
<g id="Cell">
</g>
<g id="Land_Line">
	<g>
		<path class="st0" d="M27.4,10.1c0,0.3,0.2,0.5,0.4,0.6c0.4,0.2,0.9,0.1,1.1,0.1c1.8-0.5,3.4-1.1,3.4-1.1c1.8-0.8,3.5-1.2,3.7-1.9
			c0.1-0.3,0-0.6,0-0.6s-0.1-0.4-0.4-0.6c-0.8-0.6-2.9,1-6.4,2.4C28.5,9.1,27.4,9.5,27.4,10.1z"/>
		<path class="st0" d="M26.4,6.6c0.6,0.2,1.2-0.2,2-0.7c2.8-1.9,3.2-2.1,3.1-2.5c-0.1-0.4-0.6-0.8-1-0.9c-0.5-0.1-0.9,0.1-3.2,2
			c-1,0.8-1.5,1.2-1.4,1.6C25.9,6.4,26.3,6.5,26.4,6.6z"/>
		<path class="st0" d="M23.3,4.1c0.4,0,0.7-0.4,0.9-0.6c1.2-1.4,1.8-2.1,1.6-2.6c-0.1-0.4-0.6-0.9-1-0.9c-0.5,0-0.9,0.6-1.5,1.8
			c-0.6,1-0.9,1.7-0.7,2C22.7,4.1,23,4.2,23.3,4.1z"/>
		<path class="st0" d="M30,13.4c-0.7,0-1.9,0-2.1,0.5c-0.1,0.3,0.1,0.7,0.2,0.7c0.3,0.5-0.2,0.5,3.8,0.3c1.2-0.1,1.7-0.2,2-0.6
			c0.2-0.3,0.3-0.7,0.1-1c-0.2-0.2-0.5-0.3-1.3-0.3C31.6,13.2,30.8,13.4,30,13.4z"/>
		<path class="st0" d="M37.9,42.8c-0.4-2.3-2-4.8-4.3-5.3c-2.7-0.6-3.9,2.4-6.4,2c-2.4-0.4-3.8-4-6.4-11.1c-3-8.1-2.5-9.6-1.9-10.3
			c1.5-1.9,4.5-0.3,6.2-2.4c1.4-1.8,1.1-4.8,0-6.8c-0.2-0.4-1.3-2.2-3.3-2.9c-3.2-1-6.7,1.2-8.4,3.6c-2,2.8-1.5,5.9-0.5,11.9
			c0.7,4,1.7,9.7,5.4,16.6c3.4,6.4,5.6,10.6,10,11.6c2.7,0.6,6.9,0.2,8.8-2.5C38.3,45.4,38,43.3,37.9,42.8z"/>
	</g>
</g>
<g id="Facebook">
</g>
<g id="Twitter">
</g>
<g id="Instagram">
</g>
<g id="Pinterest">
</g>
<g id="Address">
</g>
<g id="LinkedIn">
</g>
</svg>
