<?xml version="1.0" encoding="utf-8"?>
<!-- Generator: Adobe Illustrator 19.2.1, SVG Export Plug-In . SVG Version: 6.00 Build 0)  -->
<svg version="1.1" xmlns="http://www.w3.org/2000/svg" xmlns:xlink="http://www.w3.org/1999/xlink" x="0px" y="0px"
	 viewBox="0 0 50 50" style="enable-background:new 0 0 50 50;" xml:space="preserve">
<style type="text/css">
	.st0{fill:#63432D;}
	.st1{fill:none;}
</style>
<g id="Web">
</g>
<g id="E-Mail">
</g>
<g id="Cell">
</g>
<g id="Land_Line">
</g>
<g id="Facebook">
</g>
<g id="Twitter">
</g>
<g id="Instagram">
</g>
<g id="Pinterest">
</g>
<g id="Address">
</g>
<g id="LinkedIn">
	<g>
		<path class="st0" d="M48.5,30.9C48.4,30.2,48.3,21,48,2.4c0-0.1,0-0.5-0.2-0.8c-0.1-0.1-0.3-0.4-1.3-0.6C45.8,0.9,45.3,1,45.3,1
			c-4.1,0.4-8.3,0.1-12.4,0.3c-0.7,0-2.4,0.1-3.9,0.1C24.7,1.5,4,1.7,2.5,1.5c-0.1,0-0.7-0.1-1.2,0.2c-0.1,0-0.1,0.1-0.1,0.1
			C0.7,2.3,0.8,3.2,0.8,3.4c0.7,8.4,0.3,16.9,0.6,25.4C1.5,32.3,1.2,34,1.6,38c0.2,2.2,0.3,4.4,0.3,6.6c0,0.2-0.1,1.2,0.1,2.5
			c0.1,0.6,0.1,0.9,0.3,1.2c0.7,1.2,3,1,3.6,1c4.3-0.3,8.6,0.2,12.9-0.3c9.5-1.2,26.6-0.2,27.9-0.1c0.2,0,0.9,0.1,1.4-0.3
			c0.6-0.5,0.6-1.5,0.6-1.8C48.5,41.5,49.2,36.2,48.5,30.9z M10.6,8.2c0.5-0.6,1.2-0.6,1.4-0.6c0.6,0,1.4,0.3,1.7,1.1
			c0.3,0.6,0.2,1.3-0.2,1.8c-0.5,0.7-1.2,0.7-1.4,0.8c-0.1,0-0.9,0-1.4-0.5C10.1,10,10.1,8.9,10.6,8.2z M13.9,40.5
			c-0.1,0.8-0.3,1.3-0.6,1.5c-0.3,0.2-0.7,0.3-0.9,0.3c0,0-0.5,0-0.9-0.3c-0.7-0.5-0.6-3.5-0.6-5c0-0.3,0-0.5,0-0.7
			c0-1.4,0-4.7-0.1-8.3c-0.1-5-0.2-10.7,0-12.4c0-0.2,0.1-0.9,0.5-1.2c0.3-0.2,0.7-0.3,0.9-0.2c0.4,0,0.6,0.1,0.9,0.3
			c0.5,0.4,0.5,1.2,0.5,1.5c0,1.9,0,4,0.1,6.2c0.1,9.3,0.1,15.5,0.3,16.2C13.9,38.3,14.1,39.3,13.9,40.5z M38.7,37.9l0,0.3
			c0,1.1,0,2.1-0.1,3c0,0.8-0.6,1.4-1.4,1.4c-0.4,0-0.8-0.2-1-0.4c-0.1-0.2-0.2-0.3-0.3-0.5c0-0.1-0.1-0.3-0.1-0.5
			c0-0.7,0.9-11.6,0-18.4c-0.3-2-0.6-3.3-1.6-4.3c-1.2-1.2-3.2-1.9-5-1.5c-2.7,0.6-4.6,3.4-4.6,6.6c0,0.1,0,0.3,0,0.5
			c0,0.3,0,0.7,0,1.1c0,0,0,1.9,0.1,3.7c0,0.3,0.3,7.3,0.2,12c0,0.3,0,1-0.5,1.4c-0.3,0.3-0.8,0.3-0.9,0.3c-0.4,0-0.6-0.1-0.9-0.3
			C22,41.8,22,41,22,40.7c0-2.2,0-4.4,0-6.5c0-1.9,0-3.8,0-5.7c0-0.5,0-1,0-1.4c0-1.7,0-2.9-0.2-4.6c-0.2-1.9-0.3-3.2-0.3-5.8
			c0,0-0.1-2,0.7-2.5c0.3-0.2,0.7-0.2,0.7-0.2c0.3,0,0.5,0.1,0.7,0.2c0.1,0,0.3,0.2,0.5,0.5c0.2,0.4,0.1,0.7,0.2,1.4
			c0,0.2,0.1,1.5,0.5,1.5c0.2,0,0.4-0.4,0.5-0.5c0.7-1.2,3.3-2.2,5.4-2.3c0.5,0,3.4-0.1,5.6,1.9c2.6,2.3,2.6,6.3,2.7,14.1
			c0,0.7,0,1.3,0,1.7C38.8,33,38.7,34.6,38.7,37.9z"/>
	</g>
</g>
</svg>
