<?xml version="1.0" encoding="utf-8"?>
<!-- Generator: Adobe Illustrator 19.2.1, SVG Export Plug-In . SVG Version: 6.00 Build 0)  -->
<svg version="1.1" xmlns="http://www.w3.org/2000/svg" xmlns:xlink="http://www.w3.org/1999/xlink" x="0px" y="0px"
	 viewBox="0 0 50 50" style="enable-background:new 0 0 50 50;" xml:space="preserve">
<style type="text/css">
	.st0{fill:#63432D;}
	.st1{fill:none;}
</style>
<g id="Web">
</g>
<g id="E-Mail">
</g>
<g id="Cell">
</g>
<g id="Land_Line">
</g>
<g id="Facebook">
</g>
<g id="Twitter">
</g>
<g id="Instagram">
</g>
<g id="Pinterest">
</g>
<g id="Address">
	<g>
		<path class="st1" d="M23,22.4c0.6,0.2,1.2,0.2,1.4,0.2c0.4,0,1.7,0,2.8-1c1.3-1.1,1.4-2.7,1.4-3.1c0-0.4,0-1.6-1-2.7
			c-1.2-1.4-2.8-1.4-3.2-1.4c-0.4,0-1.5,0-2.5,0.7c-1.7,1.2-1.7,3.3-1.7,3.5C20.4,20.3,21.6,21.9,23,22.4z"/>
		<path class="st0" d="M23.8,37.6c0.1,0.1,0.3,0.4,0.6,0.4c0.1,0,0.3,0,0.6-0.3c2.1-2.3,6.5-11.5,6.5-11.5c1-2,0.9-1.6,1.3-2.5
			c0.5-1.3,2.7-6.9-0.3-11.2c-2.2-3.1-5.8-3.8-6.4-3.9C22.1,8,17.7,10,15.8,13.5c-1.2,2.1-1.1,4.1-1,6.8
			C14.8,20.2,15,25.3,23.8,37.6z M22,15c1-0.7,2.1-0.7,2.5-0.7c0.4,0,2,0.1,3.2,1.4c0.9,1.1,1,2.4,1,2.7c0,0.4-0.1,2-1.4,3.1
			c-1.1,1-2.4,1-2.8,1c-0.3,0-0.8,0-1.4-0.2c-1.5-0.5-2.7-2.1-2.7-3.9C20.3,18.3,20.3,16.2,22,15z"/>
		<path class="st0" d="M49,47.3c-0.8-0.7-2.2-2.9-5.2-7.2c-1.4-2-3.2-5.2-3.8-6.6c-0.3-0.8-0.9-1.5-1.3-2.4c0-0.1-0.1-0.3-0.4-0.5
			c-0.4-0.2-0.8-0.2-1-0.1c-0.1,0-2,0.1-5.7,0.1c-0.1,0-0.4,0-0.6,0.2c0,0.1,0,0.2,0,0.3c0.1,0.2,0.4,0.2,0.5,0.1
			c1.6,0,3.2,0,4.7-0.1c0.1,0,0.4,0,0.7,0.1c0,0,0.2,0.1,0.3,0.3c0.6,0.8,4.1,7.7,4.1,7.7c0.6,1.3,1.4,2.5,2.2,3.8
			c1.3,2.2,2.5,3.7,2,4.2c-0.1,0.2-0.4,0.1-0.6,0.1c-3,0-6,0.1-9,0c-0.5,0-1.8,0-4.4,0.1c-9,0.2-17.9-0.3-26.9,0.1
			c-0.1,0-0.5,0-0.7-0.2c-0.8-0.7,0.7-2.7,2.3-7.2c1-2.7,2.5-5.3,3.1-8.1c0,0,0-0.2,0.2-0.4c0,0,0.1-0.2,0.3-0.3
			c0.3-0.1,0.5-0.1,0.6-0.1c2.3,0.1,4.8-0.1,7.1,0c0.1,0,0.3,0,0.4-0.1c0.1-0.1,0.1-0.2,0.1-0.3c-0.1-0.1-0.4-0.1-0.4-0.1
			c-0.6,0-7.3-0.1-8-0.2c-0.2,0-0.7-0.1-1,0.2c-0.2,0.1-0.2,0.3-0.2,0.3c-1.2,2.8-2.4,5.2-3.5,8c-1,2.4-1.4,3.6-1.9,4.3
			c-0.8,1.4-1.4,3-2.2,4.4c-0.1,0.1-0.3,0.4-0.3,0.8c0,0.1,0,0.5,0.2,0.8c0.4,0.5,1.2,0.4,1.4,0.3c2.1-0.2,20.1-0.4,24.8-0.3
			c7,0.2,13.9-0.4,20.9,0.1c0.2,0,0.9,0.1,1.4-0.3c0.1,0,0.5-0.4,0.5-0.9C49.6,47.8,49.1,47.4,49,47.3z"/>
	</g>
</g>
<g id="LinkedIn">
</g>
</svg>
