<?xml version="1.0" encoding="utf-8"?>
<!-- Generator: Adobe Illustrator 19.2.1, SVG Export Plug-In . SVG Version: 6.00 Build 0)  -->
<svg version="1.1" xmlns="http://www.w3.org/2000/svg" xmlns:xlink="http://www.w3.org/1999/xlink" x="0px" y="0px"
	 viewBox="0 0 50 50" style="enable-background:new 0 0 50 50;" xml:space="preserve">
<style type="text/css">
	.st0{fill:#63432D;}
	.st1{fill:none;}
</style>
<g id="Web">
</g>
<g id="E-Mail">
</g>
<g id="Cell">
</g>
<g id="Land_Line">
</g>
<g id="Facebook">
</g>
<g id="Twitter">
</g>
<g id="Instagram">
</g>
<g id="Pinterest">
	<g>
		<path class="st0" d="M34.3,11.2c-2.4-1.7-4.7-2-6-2.2c-2.8-0.4-5.2,0.2-6.5,0.6c-1.4,0.5-4.2,1.4-6.4,4.1
			c-1.2,1.5-2.1,3.3-2.5,5.5c-0.6,3.1-0.2,6.1,2.2,8.5c0.5,0.5,1.1,0.8,1.7,1.1c0.8,0.4,1.4,0,1.6-0.8c0.2-0.5,0.4-1.1,0.4-1.7
			c0-0.4,0-0.8-0.2-1.1c-1.8-2.2-1.5-4.6-0.5-7.1c1.4-3.3,4.6-5.2,8.3-5.1c2.4,0.1,4.5,0.7,5.9,2.8c1.1,1.6,1.2,3.4,1.1,5.2
			c-0.2,1.9-0.5,3.7-1.5,5.3c-0.8,1.3-1.7,2.5-3.3,2.8c-2.1,0.4-3.6-1.1-3.1-3.2c0.5-1.8,1-3.6,1.5-5.4c0.2-0.7,0.2-1.5,0-2.1
			c-0.5-2.4-3.3-3.2-5.2-1.5c-1.6,1.4-2,3.3-1.9,5.3c0.1,0.7,0.3,1.4,0.4,2c0,0.2,0,0.5,0,0.7c-0.8,3.4-1.6,6.7-2.3,10.1
			c-0.6,2.9-0.7,4.4-0.2,6c0.2,0.6,0.4,1.2,0.9,1.4c0.9,0.2,2-1.4,2.4-2c0.7-1,1.3-2.1,2.4-6.7c0.1-0.6,0.3-1.2,0.4-1.7
			c1,0.4,1.9,1,2.8,1.2c3.6,0.7,6.7-0.5,9-3.3c2-2.3,2.8-5,3.1-8c0.3-2.9-0.2-5.6-1.8-7.9C36.3,12.9,35.4,12,34.3,11.2z"/>
		<path class="st0" d="M40.5,7.7c-4.1-3.8-9-5.5-14.4-5.5c0,0,0,0,0,0c-0.4,0-0.9,0-1.3,0c-6.9,0.3-13,2.4-17.2,7.8
			c-6,7.2-8.8,20.5,1.4,31.1c4.4,4.6,10.3,6.5,16.6,6.5c0.4,0,0.8,0,1.1,0c6.7-0.2,12-3.5,16.2-8.4c3.6-4.3,4.8-9.5,4.8-15.1
			C47.8,17.6,45.3,12.1,40.5,7.7z M41.2,37.8c-4.1,4.9-9,7.4-14.5,7.6c-0.4,0-0.7,0-1,0c-6.2,0-11.2-1.9-14.9-5.8
			C6.5,35.3,4.4,30,4.5,24.5c0.2-4.7,1.9-9.3,4.8-12.9c0,0,0,0,0.1-0.1c5.1-6.7,14-6.9,15.5-6.9c1.8-0.1,5.5-0.2,9.6,1.8
			C35,6.6,36.9,7.5,39,9.4c4.4,4.1,6.6,8.9,6.5,14.8C45.4,30.1,44.1,34.4,41.2,37.8z"/>
	</g>
</g>
<g id="Address">
</g>
<g id="LinkedIn">
</g>
</svg>
