<?xml version="1.0" encoding="utf-8"?>
<!-- Generator: Adobe Illustrator 19.2.1, SVG Export Plug-In . SVG Version: 6.00 Build 0)  -->
<svg version="1.1" xmlns="http://www.w3.org/2000/svg" xmlns:xlink="http://www.w3.org/1999/xlink" x="0px" y="0px"
	 viewBox="0 0 50 50" style="enable-background:new 0 0 50 50;" xml:space="preserve">
<style type="text/css">
	.st0{fill:#63432D;}
	.st1{fill:none;}
</style>
<g id="Web">
</g>
<g id="E-Mail">
</g>
<g id="Cell">
</g>
<g id="Land_Line">
</g>
<g id="Facebook">
</g>
<g id="Twitter">
	<g>
		<path class="st0" d="M44.7,13.3c-0.1-0.3,0.3-0.5,0.5-1.1c0-0.1,0.3-1-0.2-1.6c-0.4-0.6-1.2-0.6-1.6-0.6c-0.4,0-0.7,0.1-0.9,0.1
			c-2,0.5-2.6,1.1-3.6,1c-0.7-0.1-1.1-0.5-1.7-1c-1.9-1.4-4.5-1.8-6.5-1.5c-2,0.3-4.6,1.5-5.6,3.5c-1.1,2.2-1.8,3.5-1.9,4.3
			c0,0.1,0,0.4-0.3,0.6c-0.3,0.3-0.8,0.1-1.3,0c-1.8-0.3-3-1.4-4.2-2.5c-1.4-1.3-5.4-5.3-5.4-5.3c-0.3-0.3-0.9-0.9-1.8-0.9
			c0,0,0,0-0.1,0c-0.8,0-1.4,0.4-1.9,1c-0.5,0.8-1.3,2-1.5,3.6c-0.1,1.2-0.2,2.6,0.2,3.7c0.1,0.2,0.3,0.7,0.1,1.2
			C7,18,6.7,18.1,6.6,18.2c-1.2,0.9,0.3,6.1,1.6,7.3c0.1,0.1,0.5,0.5,0.5,1c0,0.3-0.1,0.5-0.1,0.6c-0.4,1,0.5,2.5,1,3.3
			c0.4,0.6,1,1.6,2,2.5c-1.1,0.3-2.1,0.3-2.8,0.3C7.5,33.1,7,32.8,6,33c-0.1,0-1.8,0.4-2.1,1.4c-0.5,1.6,2.9,4.2,5.4,5.4
			c2.2,1.1,4.3,1.4,5.7,1.6c1.3,0.2,2.6,0.3,3.9,0.3c1.4,0,2.8-0.1,4.2-0.4c2.2-0.4,4-1,5.7-1.8c1-0.5,2-1.1,3.2-1.9
			c1.2-0.8,2.4-1.8,3.7-3.2c1.1-1.2,2.1-2.6,3-4c1.1-1.9,2.2-3.6,2.6-6c0.5-2.6,0-4.1,1.1-5.1c0.4-0.3,1-0.6,1.9-1.5
			c0.6-0.5,0.9-0.8,1.1-1.2c0.5-0.9,0.8-2.3,0.3-2.8C45.4,13.4,44.9,13.6,44.7,13.3z M39.9,18.9c-0.2,0.6-0.2,0.9-0.2,1.8
			c0,0-0.1,0.9-0.6,3.2c-0.2,1.1-1.5,5.3-5.1,9c-5.4,5.6-12.5,6.5-15.1,6.5h0c-1,0-4.6,0-8.6-1.7c-1.7-0.7-3.8-1.8-3.6-2.3
			c0.2-0.5,2.5,0.3,6-0.3c2.3-0.4,4.6-1.5,4.5-2.1c-0.1-0.4-1.3-0.2-2.8-0.9c-2.7-1.3-4-4.4-3.6-4.8c0.2-0.2,0.6,0.3,1.6,0.4
			c0.7,0,1.5-0.1,1.6-0.3c0.1-0.3-1.4-0.5-2.9-1.7c-0.9-0.8-1.3-1.5-1.5-1.7C9.1,23.4,9,23,8.8,22.3c-0.3-1-0.7-2.5-0.3-2.7
			c0.2-0.1,0.5,0.3,1.6,0.7c0.6,0.3,1.6,0.6,1.7,0.4c0.2-0.3-1.4-1-2.2-2.9c-0.4-0.8-0.5-1.6-0.5-2c-0.1-1-0.1-1.9,0-2.4
			c0.2-1.4,0.4-2.4,0.9-2.6c1.1-0.5,2.8,3.1,7,6c3.9,2.7,7.7,3.2,7.9,2.7c0.1-0.1,0.1-0.6,0.1-0.7c0-0.4,0-0.6,0-0.7
			c0-0.9,0.2-1.8,0.5-2.6c0.4-1,0.9-1.6,1.4-2.2c0.8-1,1.2-1.5,2-2c1.2-0.6,2.3-0.6,3.6-0.6c0.6,0,1.2,0,2.1,0.3
			c0.5,0.2,1.1,0.4,2.2,1.1c1.2,0.8,0.9,0.8,1.3,0.9c0.2,0.1,0.8,0.2,2.9-0.6c1.5-0.6,1.9-0.9,2.1-0.7c0.2,0.3-0.3,1.4-1.2,2.2
			c-1.1,1-2.2,1.2-2.1,1.4c0.1,0.2,1.4,0.2,2.6-0.1c0.7-0.2,1.3-0.4,1.3-0.3c0.1,0.2-0.5,0.7-0.7,0.9c-0.6,0.5-0.9,0.7-1.4,1
			C41.5,16.9,40.4,17.7,39.9,18.9z"/>
	</g>
</g>
<g id="Instagram">
</g>
<g id="Pinterest">
</g>
<g id="Address">
</g>
<g id="LinkedIn">
</g>
</svg>
