<?xml version="1.0" encoding="utf-8"?>
<!-- Generator: Adobe Illustrator 19.2.1, SVG Export Plug-In . SVG Version: 6.00 Build 0)  -->
<svg version="1.1" xmlns="http://www.w3.org/2000/svg" xmlns:xlink="http://www.w3.org/1999/xlink" x="0px" y="0px"
	 viewBox="0 0 50 50" style="enable-background:new 0 0 50 50;" xml:space="preserve">
<style type="text/css">
	.st0{fill:#63432D;}
	.st1{fill:none;}
</style>
<g id="Web">
	<g>
		<path class="st0" d="M36.6,9.4C36.3,9,35.7,8.9,35.2,9c-0.5,0.1-0.8,0.5-2.1,3.3c-0.6,1.2-0.9,1.8-0.6,2.2
			c0.2,0.3,0.7,0.2,0.8,0.2c0.7-0.1,1.1-0.8,1.5-1.6C36.6,10.1,36.8,9.7,36.6,9.4z"/>
		<path class="st0" d="M29.3,13.8c0.3,0.1,0.6-0.1,0.8-0.3c0.3-0.3,0.3-0.8,0.4-1.1c0.1-1.9,0.1-2.9-0.4-3.2c-0.4-0.3-1-0.3-1.4,0
			c-0.4,0.3-0.3,1.1-0.1,2.5C28.7,12.9,28.8,13.7,29.3,13.8z"/>
		<path class="st0" d="M39.1,14.3c-0.5-0.3-1.1,0.1-2.4,0.8c-1,0.6-1.7,1-1.7,1.5c0,0.3,0.3,0.5,0.5,0.6c0.4,0.2,0.8,0.1,1.1-0.1
			c1.8-0.6,2.7-0.9,2.9-1.5C39.6,15.2,39.5,14.6,39.1,14.3z"/>
		<path class="st0" d="M31.1,16.7c-1,0-2.6,1-4.7,2c-4.9,2.5-9.7,5.4-14.7,7.8c-0.3,0.1-1.1,0.5-1.2,1.2c-0.1,0.4,0.2,0.8,0.2,0.8
			c0.3,0.4,0.7,0.6,0.9,0.6c0.5,0.2,3.9,1.4,6.2,2.8c-0.8,1.1-2.7,3.2-5.7,6.7c-0.2,0.2-0.6,0.7-0.5,1.3c0,0.2,0.2,0.5,0.4,0.7
			c0.1,0.1,0.4,0.3,0.7,0.3c0.5,0,0.8-0.3,1-0.5c1.5-1.5,4-4.8,5.5-6.4c0.1-0.1,0.3-0.3,0.5-0.5c1.7,1.7,3.2,4,3.6,4.8
			c0.1,0.1,0.3,0.7,1,1.1c0.2,0.1,0.4,0.3,0.7,0.3c0,0,0.1,0,0.1,0c0.7-0.1,1-1.2,1.1-1.6c4.3-13.9,4.7-15.8,5.7-19.4
			c0.1-0.5,0.4-1.5-0.1-1.9C31.6,16.8,31.4,16.7,31.1,16.7z M24.5,36c-0.8-1.2-2-2.9-3.4-4.1c-0.4-0.3-0.7-0.7-1.1-0.9
			c-0.3-0.2-0.6-0.5-1-0.7c-1.5-1-3.4-1.8-4.8-2.4c2.3-1.2,4.6-2.4,6.9-3.7c2.1-1.1,4.2-2.3,6.3-3.4c0.3-0.2,0.6-0.3,1-0.5
			c0.3-0.1,0.6-0.3,0.9-0.4C28.5,22.6,27.7,25.5,24.5,36z"/>
	</g>
</g>
<g id="E-Mail">
</g>
<g id="Cell">
</g>
<g id="Land_Line">
</g>
<g id="Facebook">
</g>
<g id="Twitter">
</g>
<g id="Instagram">
</g>
<g id="Pinterest">
</g>
<g id="Address">
</g>
<g id="LinkedIn">
</g>
</svg>
